<svg xmlns="http://www.w3.org/2000/svg" viewBox="0 0 64 64" role="img" aria-label="RuOpenRay Keenetic">
  <rect width="64" height="64" rx="4" fill="#111927"/>
  <rect x="0.5" y="0.5" width="63" height="63" rx="3.5" fill="none" stroke="#46566b"/>
  <g fill="#079bd8">
    <rect x="12" y="11" width="8" height="8" rx="1"/>
    <rect x="22" y="11" width="8" height="8" rx="1"/>
    <rect x="12" y="21" width="8" height="8" rx="1"/>
    <rect x="22" y="21" width="8" height="8" rx="1"/>
  </g>
  <path d="M15 45h16.5c6.9 0 12.5-5.6 12.5-12.5S38.4 20 31.5 20H26" fill="none" stroke="#17b5f4" stroke-width="5.4" stroke-linecap="round" stroke-linejoin="round"/>
  <path d="M15 45h19.5L47 57" fill="none" stroke="#17b5f4" stroke-width="5.4" stroke-linecap="round" stroke-linejoin="round"/>
  <circle cx="31.5" cy="45" r="7.5" fill="#111927" stroke="#17b5f4" stroke-width="5.4"/>
  <circle cx="31.5" cy="45" r="2.7" fill="#e7ebf0"/>
  <path d="M50 25c2.8 3.1 4.3 7.1 4.3 11s-1.5 7.9-4.3 11" fill="none" stroke="#57cfff" stroke-width="3.8" stroke-linecap="round"/>
  <path d="M45.2 30.2c1.3 1.7 2 3.8 2 5.8s-.7 4.1-2 5.8" fill="none" stroke="#57cfff" stroke-width="3.8" stroke-linecap="round"/>
</svg>
